<svg xmlns="http://www.w3.org/2000/svg" xmlns:xlink="http://www.w3.org/1999/xlink" width="162.427" height="28.081" viewBox="0 0 162.427 28.081">
  <defs>
    <clipPath id="clip-path">
      <rect id="사각형_371" data-name="사각형 371" width="162.427" height="28.081" fill="#fff"/>
    </clipPath>
  </defs>
  <g id="그룹_606" data-name="그룹 606" transform="translate(-302 -25.64)">
    <g id="그룹_605" data-name="그룹 605" transform="translate(302 25.64)">
      <g id="그룹_604" data-name="그룹 604" clip-path="url(#clip-path)">
        <path id="패스_370" data-name="패스 370" d="M.07,47.788H5.082a.839.839,0,0,0,.3.017c.106-.012.217-.029.335-.053a2.508,2.508,0,0,0,.953-.318.706.706,0,0,0,.424-.6.779.779,0,0,0-.141-.37,2.177,2.177,0,0,0-.423-.477.493.493,0,0,0-.088-.123.482.482,0,0,0-.124-.088q-.423-.282-.829-.582t-.759-.618a18.293,18.293,0,0,1-3.353-3.211A6.146,6.146,0,0,1,.07,37.447a.156.156,0,0,0-.018-.07.241.241,0,0,1-.018-.106A.16.16,0,0,0,.017,37.2.152.152,0,0,1,0,37.129,3.991,3.991,0,0,1,1.306,33.9a7.894,7.894,0,0,1,2.859-1.563,8.538,8.538,0,0,1,1.729-.373,14.316,14.316,0,0,1,1.447-.089l6.811-.035v6.069H9.387a3.037,3.037,0,0,0-1.253.283q-.476.246-.476.565a.745.745,0,0,0,.123.352,1.69,1.69,0,0,0,.37.423.854.854,0,0,0,.106.088,1.556,1.556,0,0,1,.141.124q.176.141.371.282c.129.095.265.189.406.283a1.805,1.805,0,0,0,.229.194c.082.059.159.112.229.159a32.247,32.247,0,0,1,3.529,3.035,5.964,5.964,0,0,1,1.764,3.882v.741a4.892,4.892,0,0,1-2.276,4.464,10.224,10.224,0,0,1-4.994,1.57H7.093L.07,54.316Z" transform="translate(0 -26.624)" fill="#fff"/>
        <path id="패스_371" data-name="패스 371" d="M200.2,54.316q-5.365.036-8.047-3.375a11.877,11.877,0,0,1-2.682-7.512v-.495a12.653,12.653,0,0,1,3-7.6q2.823-3.464,8.223-3.464l3.494-.035v5.822h-2.258c-.189.024-.377.041-.565.053a3.162,3.162,0,0,0-.565.088,6.372,6.372,0,0,0-2.382.917,2.483,2.483,0,0,0-1.253,1.8h7.023V45.74h-7.023a1.9,1.9,0,0,0,.123.424,2.981,2.981,0,0,0,.194.388,4.392,4.392,0,0,0,1.235,1.236,3.375,3.375,0,0,0,1.976.564l3.494-.035v6Z" transform="translate(-158.451 -26.624)" fill="#fff"/>
        <path id="패스_372" data-name="패스 372" d="M297.008,33.593a3.6,3.6,0,0,1,1.5-2.753,5.5,5.5,0,0,1,3.017-1.165h.6a5.107,5.107,0,0,1,2.611.9,3.981,3.981,0,0,1,1.624,2.559l1.765,7.27,2.012-7.834a3.421,3.421,0,0,1,1.676-2.012,5.75,5.75,0,0,1,2.806-.812h.565a5.424,5.424,0,0,1,2.858,1.147,4.281,4.281,0,0,1,1.482,3.229l1.518,18.387H314.2l-.741-13.093L310.7,51.027a1.913,1.913,0,0,1-.723,1.252,3.121,3.121,0,0,1-1.253.582,1.775,1.775,0,0,0-.265.018,1.689,1.689,0,0,1-.229.018h-.159a.352.352,0,0,1-.159-.036,2.46,2.46,0,0,1-1.147-.458,1.562,1.562,0,0,1-.653-1.094l-3-11.893L302.3,52.509h-6.776Z" transform="translate(-247.143 -24.817)" fill="#fff"/>
        <path id="패스_373" data-name="패스 373" d="M103.325,32.048,99.168,36.2l-4.156-4.156H91.825v6.282H95.6V54.493H102.7V38.329h3.741V32.048Z" transform="translate(-76.792 -26.801)" fill="#fff"/>
        <path id="패스_374" data-name="패스 374" d="M115.345,8.35l3.65-3.65.526-.526L115.345,0l-4.176,4.175.526.526Z" transform="translate(-92.968 0.001)" fill="#fff"/>
        <path id="패스_375" data-name="패스 375" d="M463.551,45.088l1.972-13.823a2.755,2.755,0,0,1,.553-1.408,1.374,1.374,0,0,1,1.094-.477,1.424,1.424,0,0,1,1.008.4,2.544,2.544,0,0,1,.65,1.154l3.466,11.05,3.434-11.05a2.622,2.622,0,0,1,.661-1.154,1.424,1.424,0,0,1,1.007-.4,1.375,1.375,0,0,1,1.094.477,2.758,2.758,0,0,1,.552,1.408l1.972,13.823h-1.972L477.266,32.3,473.712,43.69a3.306,3.306,0,0,1-.6,1.2,1.064,1.064,0,0,1-.823.374,1.092,1.092,0,0,1-.839-.358,3.284,3.284,0,0,1-.6-1.213L467.3,32.3l-1.755,12.783Z" transform="translate(-387.66 -24.57)" fill="#fff"/>
        <path id="패스_376" data-name="패스 376" d="M587.955,65.231a6.159,6.159,0,0,1-1.841,3.6,5,5,0,0,1-3.51,1.322,5.214,5.214,0,0,1-1.392-.19,5.08,5.08,0,0,1-1.295-.558,5.632,5.632,0,0,1-2.28-6.9,5.678,5.678,0,0,1,1.175-1.8,5.252,5.252,0,0,1,3.813-1.614,5.08,5.08,0,0,1,2.887.851,6.091,6.091,0,0,1,2.064,2.476L580.61,66.27l-.8-1.441,5.167-2.882a3.248,3.248,0,0,0-1.072-.8,3.11,3.11,0,0,0-1.3-.271,3.145,3.145,0,0,0-2.41,1.067,4.023,4.023,0,0,0,.006,5.27,3.278,3.278,0,0,0,4.674.179,4.149,4.149,0,0,0,1.143-2.454Z" transform="translate(-482.727 -49.414)" fill="#fff"/>
        <path id="패스_377" data-name="패스 377" d="M661.679,30.571V39.92a12.479,12.479,0,0,1-.136,2.145,4.652,4.652,0,0,1-.449,1.311,5.048,5.048,0,0,1-1.939,2.134,5.3,5.3,0,0,1-2.806.769,5.1,5.1,0,0,1-3.829-1.565,5.469,5.469,0,0,1-1.512-3.96,5.752,5.752,0,0,1,.368-2.047,5.374,5.374,0,0,1,1.073-1.744,4.928,4.928,0,0,1,1.712-1.24,5.108,5.108,0,0,1,2.08-.439,6.255,6.255,0,0,1,1.511.179,5.425,5.425,0,0,1,1.37.547v2.047a5.1,5.1,0,0,0-1.316-.737,3.917,3.917,0,0,0-1.349-.239,3.3,3.3,0,0,0-2.513,1.051,3.784,3.784,0,0,0-.986,2.7,3.7,3.7,0,0,0,.959,2.638,3.213,3.213,0,0,0,2.454,1.024,3.158,3.158,0,0,0,2.448-1.035,3.856,3.856,0,0,0,.943-2.7V30.571Z" transform="translate(-544.427 -25.566)" fill="#fff"/>
        <path id="패스_378" data-name="패스 378" d="M729.553,36.085a1.106,1.106,0,0,1,.336-.813,1.148,1.148,0,0,1,1.972.813,1.161,1.161,0,0,1-.33.839,1.093,1.093,0,0,1-.818.342,1.107,1.107,0,0,1-.818-.347,1.147,1.147,0,0,1-.341-.834m.206,3.022h1.907V49.735h-1.907Z" transform="translate(-610.112 -29.217)" fill="#fff"/>
        <path id="패스_379" data-name="패스 379" d="M761.693,62.233h-.823a4.949,4.949,0,0,0-3.2.959,3.31,3.31,0,0,0,.005,5.091,4.958,4.958,0,0,0,3.191.959h.823v1.8h-.953a6.733,6.733,0,0,1-4.545-1.457,4.853,4.853,0,0,1-1.7-3.873,5.037,5.037,0,0,1,.607-2.427,5.386,5.386,0,0,1,3.38-2.643,9.205,9.205,0,0,1,2.253-.228h.953Z" transform="translate(-630.975 -50.522)" fill="#fff"/>
        <path id="패스_380" data-name="패스 380" d="M815.383,70.045v-5.3a3.856,3.856,0,0,0-.943-2.7,3.158,3.158,0,0,0-2.448-1.035,3.212,3.212,0,0,0-2.453,1.024,3.7,3.7,0,0,0-.959,2.638,3.783,3.783,0,0,0,.986,2.7,3.294,3.294,0,0,0,2.513,1.051,3.922,3.922,0,0,0,1.349-.238,5.086,5.086,0,0,0,1.316-.737v2.047a5.417,5.417,0,0,1-1.37.547,6.273,6.273,0,0,1-1.511.178,5.037,5.037,0,0,1-1.506-.233A4.9,4.9,0,0,1,809,69.33a5.317,5.317,0,0,1-1.755-1.977,5.709,5.709,0,0,1-.607-2.638,5.428,5.428,0,0,1,1.506-3.938,5.1,5.1,0,0,1,3.824-1.554,5.285,5.285,0,0,1,2.8.769,5.148,5.148,0,0,1,1.95,2.113,4.8,4.8,0,0,1,.449,1.327,12.635,12.635,0,0,1,.135,2.15v4.463Z" transform="translate(-674.58 -49.527)" fill="#fff"/>
        <path id="패스_381" data-name="패스 381" d="M886.509,70.045V59.418h1.755v1.571a2.979,2.979,0,0,1,1.343-1.349,5.328,5.328,0,0,1,2.308-.417h.5v1.841h-.292a3.731,3.731,0,0,0-2.833.932,4.356,4.356,0,0,0-.872,3.033v5.016Z" transform="translate(-741.372 -49.527)" fill="#fff"/>
        <path id="패스_382" data-name="패스 382" d="M937.333,65.231a6.161,6.161,0,0,1-1.842,3.6,5,5,0,0,1-3.51,1.322,5.214,5.214,0,0,1-1.392-.19,5.08,5.08,0,0,1-1.295-.558,5.632,5.632,0,0,1-2.28-6.9,5.67,5.67,0,0,1,1.175-1.8A5.252,5.252,0,0,1,932,59.088a5.08,5.08,0,0,1,2.887.851,6.1,6.1,0,0,1,2.064,2.476l-6.966,3.856-.8-1.441,5.168-2.882a3.246,3.246,0,0,0-1.073-.8,3.107,3.107,0,0,0-1.3-.271,3.146,3.146,0,0,0-2.41,1.067,4.023,4.023,0,0,0,.005,5.27,3.278,3.278,0,0,0,4.674.179,4.152,4.152,0,0,0,1.143-2.454Z" transform="translate(-774.906 -49.414)" fill="#fff"/>
        <path id="패스_383" data-name="패스 383" d="M730.134,35.323a1.574,1.574,0,1,1-1.574-1.574,1.574,1.574,0,0,1,1.574,1.574" transform="translate(-607.966 -28.224)" fill="#fff"/>
        <path id="패스_384" data-name="패스 384" d="M466.859,144.474h-.608v-4.182a.86.86,0,0,1,.137-.523.459.459,0,0,1,.39-.182.494.494,0,0,1,.322.118,1.09,1.09,0,0,1,.265.364l1.742,3.618V139.64h.614v4.2a.865.865,0,0,1-.135.517.438.438,0,0,1-.375.186.53.53,0,0,1-.339-.12,1,1,0,0,1-.265-.363l-1.748-3.642Z" transform="translate(-389.918 -116.733)" fill="#fff"/>
        <path id="패스_385" data-name="패스 385" d="M491.4,150.555a1.694,1.694,0,0,1,.128-.655,1.764,1.764,0,0,1,.371-.56,1.671,1.671,0,0,1,.538-.37,1.617,1.617,0,0,1,.636-.126,1.655,1.655,0,0,1,.641.126,1.621,1.621,0,0,1,.54.37,1.677,1.677,0,0,1,.366.557,1.741,1.741,0,0,1,.127.658,1.771,1.771,0,0,1-.127.667,1.673,1.673,0,0,1-.366.559,1.611,1.611,0,0,1-.54.37,1.65,1.65,0,0,1-.641.127,1.611,1.611,0,0,1-.636-.127,1.66,1.66,0,0,1-.538-.37,1.716,1.716,0,0,1-.371-.56,1.739,1.739,0,0,1-.128-.665m.617-.007a1.165,1.165,0,0,0,.309.818,1,1,0,0,0,1.5,0,1.235,1.235,0,0,0,0-1.632,1.005,1.005,0,0,0-1.5,0,1.155,1.155,0,0,0-.309.814" transform="translate(-410.953 -124.476)" fill="#fff"/>
        <path id="패스_386" data-name="패스 386" d="M515.257,139.917h.6v3.173a1.2,1.2,0,0,0,.294.842.984.984,0,0,0,.763.322,1,1,0,0,0,.773-.322,1.2,1.2,0,0,0,.3-.849,1.134,1.134,0,0,0-.306-.82,1.041,1.041,0,0,0-.785-.317,1.266,1.266,0,0,0-.425.074,1.5,1.5,0,0,0-.412.23v-.638a1.677,1.677,0,0,1,.427-.17,1.944,1.944,0,0,1,.471-.056,1.565,1.565,0,0,1,.469.073,1.532,1.532,0,0,1,.422.2,1.7,1.7,0,0,1,.552.618,1.735,1.735,0,0,1,.191.81,1.7,1.7,0,0,1-.471,1.235,1.587,1.587,0,0,1-1.19.486,1.661,1.661,0,0,1-.878-.241,1.579,1.579,0,0,1-.608-.663,1.449,1.449,0,0,1-.14-.408,3.894,3.894,0,0,1-.042-.668Z" transform="translate(-430.9 -117.01)" fill="#fff"/>
        <rect id="사각형_370" data-name="사각형 370" width="0.594" height="4.833" transform="translate(88.299 22.907)" fill="#fff"/>
        <path id="패스_387" data-name="패스 387" d="M550.059,150.716a1.918,1.918,0,0,1-.574,1.121,1.559,1.559,0,0,1-1.094.412,1.622,1.622,0,0,1-.434-.059,1.573,1.573,0,0,1-.4-.174,1.754,1.754,0,0,1-.711-2.15,1.764,1.764,0,0,1,.366-.56,1.637,1.637,0,0,1,1.188-.5,1.584,1.584,0,0,1,.9.265,1.9,1.9,0,0,1,.643.771l-2.17,1.2-.25-.449,1.61-.9a1.01,1.01,0,0,0-.334-.25.969.969,0,0,0-.405-.084.981.981,0,0,0-.751.333,1.253,1.253,0,0,0,0,1.642,1.022,1.022,0,0,0,1.456.056,1.292,1.292,0,0,0,.356-.765Z" transform="translate(-457.211 -124.44)" fill="#fff"/>
        <path id="패스_388" data-name="패스 388" d="M584.234,140.49l-.091-.005-.142,0a2.267,2.267,0,0,0-1.549.5,1.887,1.887,0,0,0,0,2.7,2.267,2.267,0,0,0,1.549.5l.143,0,.09,0v.581h-.186a4.7,4.7,0,0,1-.945-.085,2.143,2.143,0,0,1-.685-.253,2.476,2.476,0,0,1-.884-.886,2.5,2.5,0,0,1,0-2.388,2.457,2.457,0,0,1,.884-.881A2.175,2.175,0,0,1,583.1,140a4.627,4.627,0,0,1,.945-.086h.186Z" transform="translate(-486.072 -117.009)" fill="#fff"/>
        <path id="패스_389" data-name="패스 389" d="M604.88,152.216v-1.651a1.2,1.2,0,0,0-.294-.842.985.985,0,0,0-.763-.322,1,1,0,0,0-.764.319,1.153,1.153,0,0,0-.3.822,1.179,1.179,0,0,0,.307.84,1.026,1.026,0,0,0,.783.328,1.225,1.225,0,0,0,.42-.074,1.594,1.594,0,0,0,.41-.23v.638a1.669,1.669,0,0,1-.427.171,1.938,1.938,0,0,1-.471.056,1.564,1.564,0,0,1-.469-.073,1.523,1.523,0,0,1-.422-.2,1.656,1.656,0,0,1-.547-.616,1.778,1.778,0,0,1-.189-.822,1.69,1.69,0,0,1,.469-1.227,1.587,1.587,0,0,1,1.191-.484,1.648,1.648,0,0,1,.871.24,1.606,1.606,0,0,1,.608.658,1.5,1.5,0,0,1,.14.414,3.943,3.943,0,0,1,.042.67v1.391Z" transform="translate(-503.573 -124.476)" fill="#fff"/>
        <path id="패스_390" data-name="패스 390" d="M627.041,152.216V148.9h.547v.489a.927.927,0,0,1,.418-.42,1.659,1.659,0,0,1,.719-.13h.155v.574h-.091a1.162,1.162,0,0,0-.883.29,1.358,1.358,0,0,0-.272.945v1.563Z" transform="translate(-524.383 -124.476)" fill="#fff"/>
        <path id="패스_391" data-name="패스 391" d="M642.875,150.716a1.92,1.92,0,0,1-.574,1.121,1.559,1.559,0,0,1-1.094.412,1.624,1.624,0,0,1-.434-.059,1.581,1.581,0,0,1-.4-.174,1.755,1.755,0,0,1-.711-2.15,1.76,1.76,0,0,1,.367-.56,1.637,1.637,0,0,1,1.188-.5,1.586,1.586,0,0,1,.9.265,1.9,1.9,0,0,1,.643.771l-2.17,1.2-.25-.449,1.61-.9a1.01,1.01,0,0,0-.334-.25.97.97,0,0,0-.405-.084.98.98,0,0,0-.751.333,1.252,1.252,0,0,0,0,1.642,1.022,1.022,0,0,0,1.456.056,1.292,1.292,0,0,0,.356-.765Z" transform="translate(-534.831 -124.44)" fill="#fff"/>
        <path id="패스_392" data-name="패스 392" d="M675.138,144.75v-3.6a1.169,1.169,0,0,1,.348-.925,1.547,1.547,0,0,1,1.05-.307h.358v.567h-.344a.89.89,0,0,0-.626.186.767.767,0,0,0-.2.584v.186h1.168V142h-1.168v2.751Z" transform="translate(-564.606 -117.01)" fill="#fff"/>
        <path id="패스_393" data-name="패스 393" d="M687.075,150.555a1.7,1.7,0,0,1,.128-.655,1.758,1.758,0,0,1,.371-.56,1.667,1.667,0,0,1,.538-.37,1.619,1.619,0,0,1,.636-.126,1.656,1.656,0,0,1,.641.126,1.621,1.621,0,0,1,.54.37,1.682,1.682,0,0,1,.366.557,1.744,1.744,0,0,1,.127.658,1.775,1.775,0,0,1-.127.667,1.678,1.678,0,0,1-.366.559,1.611,1.611,0,0,1-.54.37,1.651,1.651,0,0,1-.641.127,1.613,1.613,0,0,1-.636-.127,1.656,1.656,0,0,1-.538-.37,1.711,1.711,0,0,1-.371-.56,1.739,1.739,0,0,1-.128-.665m.618-.007a1.164,1.164,0,0,0,.309.818,1,1,0,0,0,1.5,0,1.235,1.235,0,0,0,0-1.632,1.005,1.005,0,0,0-1.5,0,1.155,1.155,0,0,0-.309.814" transform="translate(-574.589 -124.476)" fill="#fff"/>
        <path id="패스_394" data-name="패스 394" d="M711.237,152.216V148.9h.547v.489a.929.929,0,0,1,.418-.42,1.661,1.661,0,0,1,.719-.13h.155v.574h-.091a1.162,1.162,0,0,0-.883.29,1.358,1.358,0,0,0-.271.945v1.563Z" transform="translate(-594.795 -124.476)" fill="#fff"/>
        <path id="패스_395" data-name="패스 395" d="M736.658,144.75v-4.833h.635v2h2.083v-2h.641v4.833h-.641v-2.218h-2.083v2.218Z" transform="translate(-616.054 -117.01)" fill="#fff"/>
        <path id="패스_396" data-name="패스 396" d="M764.831,149.215v1.806a1.637,1.637,0,0,1-.383,1.144,1.456,1.456,0,0,1-2.05,0,1.641,1.641,0,0,1-.382-1.144v-1.806h.591v1.914a.894.894,0,0,0,.231.638.827.827,0,0,0,1.178,0,.9.9,0,0,0,.228-.638v-1.914Z" transform="translate(-637.261 -124.786)" fill="#fff"/>
        <path id="패스_397" data-name="패스 397" d="M783.643,152.216V150.3a1.531,1.531,0,0,1,.354-1.067,1.225,1.225,0,0,1,.955-.391,1.252,1.252,0,0,1,.568.13,1.281,1.281,0,0,1,.449.38,1.312,1.312,0,0,1,.452-.382,1.241,1.241,0,0,1,.563-.128,1.219,1.219,0,0,1,.95.393,1.527,1.527,0,0,1,.356,1.065v1.914H787.7v-2.025a.787.787,0,0,0-.2-.56.742.742,0,0,0-1.04,0,.788.788,0,0,0-.2.56v2.025h-.588v-2.025a.777.777,0,0,0-.2-.56.69.69,0,0,0-.523-.213.679.679,0,0,0-.521.213.792.792,0,0,0-.2.56v2.025Z" transform="translate(-655.347 -124.476)" fill="#fff"/>
        <path id="패스_398" data-name="패스 398" d="M818.28,152.216v-1.651a1.2,1.2,0,0,0-.294-.842.985.985,0,0,0-.763-.322,1,1,0,0,0-.764.319,1.153,1.153,0,0,0-.3.822,1.179,1.179,0,0,0,.307.84,1.026,1.026,0,0,0,.783.328,1.223,1.223,0,0,0,.42-.074,1.588,1.588,0,0,0,.41-.23v.638a1.667,1.667,0,0,1-.427.171,1.938,1.938,0,0,1-.471.056,1.564,1.564,0,0,1-.469-.073,1.52,1.52,0,0,1-.422-.2,1.658,1.658,0,0,1-.547-.616,1.779,1.779,0,0,1-.189-.822,1.69,1.69,0,0,1,.469-1.227,1.587,1.587,0,0,1,1.191-.484,1.648,1.648,0,0,1,.871.24,1.605,1.605,0,0,1,.607.658,1.487,1.487,0,0,1,.14.414,3.909,3.909,0,0,1,.042.67v1.391Z" transform="translate(-682.035 -124.476)" fill="#fff"/>
        <path id="패스_399" data-name="패스 399" d="M840.173,152.216V150.41a1.633,1.633,0,0,1,.385-1.144,1.455,1.455,0,0,1,2.049,0,1.644,1.644,0,0,1,.381,1.144v1.806H842.4V150.3a.9.9,0,0,0-.228-.638.827.827,0,0,0-1.178,0,.9.9,0,0,0-.231.638v1.914Z" transform="translate(-702.622 -124.476)" fill="#fff"/>
        <path id="패스_400" data-name="패스 400" d="M874.407,144.474H873.8v-4.182a.86.86,0,0,1,.137-.523.458.458,0,0,1,.39-.182.5.5,0,0,1,.322.118,1.1,1.1,0,0,1,.265.364l1.741,3.618V139.64h.614v4.2a.864.864,0,0,1-.135.517.438.438,0,0,1-.375.186.53.53,0,0,1-.339-.12,1,1,0,0,1-.265-.363l-1.749-3.642Z" transform="translate(-730.744 -116.733)" fill="#fff"/>
        <path id="패스_401" data-name="패스 401" d="M901.716,152.216v-1.651a1.2,1.2,0,0,0-.294-.842.984.984,0,0,0-.763-.322,1,1,0,0,0-.764.319,1.154,1.154,0,0,0-.3.822,1.179,1.179,0,0,0,.307.84,1.027,1.027,0,0,0,.783.328,1.221,1.221,0,0,0,.42-.074,1.6,1.6,0,0,0,.41-.23v.638a1.672,1.672,0,0,1-.427.171,1.942,1.942,0,0,1-.471.056,1.569,1.569,0,0,1-.47-.073,1.521,1.521,0,0,1-.422-.2,1.658,1.658,0,0,1-.547-.616,1.783,1.783,0,0,1-.189-.822,1.691,1.691,0,0,1,.469-1.227,1.589,1.589,0,0,1,1.192-.484,1.651,1.651,0,0,1,.871.24,1.606,1.606,0,0,1,.607.658,1.5,1.5,0,0,1,.14.414,3.928,3.928,0,0,1,.042.67v1.391Z" transform="translate(-751.812 -124.476)" fill="#fff"/>
        <path id="패스_402" data-name="패스 402" d="M923.671,143.854h.594v.878h1v.56h-1v1.418a.771.771,0,0,0,.194.582.879.879,0,0,0,.62.184h.189v.567h-.2a1.553,1.553,0,0,1-1.052-.307,1.167,1.167,0,0,1-.35-.925Z" transform="translate(-772.45 -120.303)" fill="#fff"/>
        <path id="패스_403" data-name="패스 403" d="M939.722,149.215v1.806a1.638,1.638,0,0,1-.383,1.144,1.456,1.456,0,0,1-2.051,0,1.643,1.643,0,0,1-.381-1.144v-1.806h.59v1.914a.894.894,0,0,0,.231.638.827.827,0,0,0,1.178,0,.9.9,0,0,0,.228-.638v-1.914Z" transform="translate(-783.519 -124.786)" fill="#fff"/>
        <path id="패스_404" data-name="패스 404" d="M958.8,152.216V148.9h.547v.489a.929.929,0,0,1,.418-.42,1.66,1.66,0,0,1,.719-.13h.155v.574h-.091a1.162,1.162,0,0,0-.883.29,1.358,1.358,0,0,0-.272.945v1.563Z" transform="translate(-801.829 -124.476)" fill="#fff"/>
        <path id="패스_405" data-name="패스 405" d="M974.636,150.716a1.918,1.918,0,0,1-.574,1.121,1.559,1.559,0,0,1-1.094.412,1.622,1.622,0,0,1-.434-.059,1.583,1.583,0,0,1-.4-.174,1.755,1.755,0,0,1-.711-2.15,1.761,1.761,0,0,1,.367-.56,1.638,1.638,0,0,1,1.188-.5,1.585,1.585,0,0,1,.9.265,1.9,1.9,0,0,1,.643.771l-2.17,1.2-.25-.449,1.61-.9a1.009,1.009,0,0,0-.334-.25.97.97,0,0,0-.405-.084.98.98,0,0,0-.751.333,1.252,1.252,0,0,0,0,1.642,1.021,1.021,0,0,0,1.456.056,1.291,1.291,0,0,0,.356-.765Z" transform="translate(-812.277 -124.44)" fill="#fff"/>
      </g>
    </g>
  </g>
</svg>
