<svg xmlns="http://www.w3.org/2000/svg" xmlns:xlink="http://www.w3.org/1999/xlink" width="214.851" height="37.144" viewBox="0 0 214.851 37.144">
  <defs>
    <clipPath id="clip-path">
      <rect id="사각형_371" data-name="사각형 371" width="214.851" height="37.144" fill="#fff"/>
    </clipPath>
  </defs>
  <g id="그룹_630" data-name="그룹 630" transform="translate(-302 -25.64)" opacity="0.27">
    <g id="그룹_605" data-name="그룹 605" transform="translate(302 25.64)">
      <g id="그룹_604" data-name="그룹 604" clip-path="url(#clip-path)">
        <path id="패스_370" data-name="패스 370" d="M.093,52.936H6.722a1.11,1.11,0,0,0,.4.023c.14-.016.287-.039.444-.071a3.317,3.317,0,0,0,1.26-.42.933.933,0,0,0,.56-.793,1.03,1.03,0,0,0-.187-.49,2.88,2.88,0,0,0-.56-.631.653.653,0,0,0-.117-.163.637.637,0,0,0-.164-.117q-.56-.373-1.1-.77t-1-.818A24.2,24.2,0,0,1,1.82,44.44,8.129,8.129,0,0,1,.093,39.257a.206.206,0,0,0-.023-.092.319.319,0,0,1-.023-.141.211.211,0,0,0-.023-.094A.2.2,0,0,1,0,38.838a5.279,5.279,0,0,1,1.727-4.277,10.442,10.442,0,0,1,3.781-2.068A11.294,11.294,0,0,1,7.8,32a18.937,18.937,0,0,1,1.914-.117l9.01-.046v8.028h-6.3a4.017,4.017,0,0,0-1.658.374q-.63.325-.63.747a.985.985,0,0,0,.163.466,2.236,2.236,0,0,0,.49.56,1.13,1.13,0,0,0,.14.117,2.058,2.058,0,0,1,.186.164q.233.187.491.373c.17.125.35.25.537.374a2.389,2.389,0,0,0,.3.256c.108.078.21.148.3.21a42.655,42.655,0,0,1,4.668,4.014,7.889,7.889,0,0,1,2.334,5.135v.98a6.471,6.471,0,0,1-3.011,5.905,13.524,13.524,0,0,1-6.605,2.077H9.383L.093,61.572Z" transform="translate(0 -24.942)" fill="#fff"/>
        <path id="패스_371" data-name="패스 371" d="M203.662,61.572q-7.1.047-10.644-4.464a15.711,15.711,0,0,1-3.548-9.937v-.654a16.737,16.737,0,0,1,3.968-10.052q3.734-4.582,10.877-4.583l4.621-.046v7.7H205.95c-.249.032-.5.055-.747.071a4.182,4.182,0,0,0-.747.117,8.428,8.428,0,0,0-3.151,1.213,3.284,3.284,0,0,0-1.657,2.381h9.29v6.909h-9.29a2.512,2.512,0,0,0,.163.561,3.947,3.947,0,0,0,.257.513,5.809,5.809,0,0,0,1.634,1.635,4.464,4.464,0,0,0,2.614.746l4.621-.047v7.936Z" transform="translate(-148.439 -24.942)" fill="#fff"/>
        <path id="패스_372" data-name="패스 372" d="M297.487,34.857a4.766,4.766,0,0,1,1.984-3.641,7.282,7.282,0,0,1,3.991-1.541h.794a6.755,6.755,0,0,1,3.454,1.19,5.267,5.267,0,0,1,2.148,3.385l2.334,9.616L314.852,33.5a4.525,4.525,0,0,1,2.217-2.662,7.605,7.605,0,0,1,3.711-1.074h.747a7.175,7.175,0,0,1,3.781,1.517,5.663,5.663,0,0,1,1.961,4.272l2.007,24.321h-9.056l-.98-17.319L315.6,57.918a2.53,2.53,0,0,1-.957,1.657,4.128,4.128,0,0,1-1.658.77,2.347,2.347,0,0,0-.35.024,2.232,2.232,0,0,1-.3.024h-.21a.466.466,0,0,1-.21-.048,3.255,3.255,0,0,1-1.517-.606,2.066,2.066,0,0,1-.864-1.447L305.563,42.56l-1.074,17.319h-8.963Z" transform="translate(-231.527 -23.249)" fill="#fff"/>
        <path id="패스_373" data-name="패스 373" d="M107.036,32.048l-5.5,5.5-5.5-5.5H91.826v8.309H96.82V61.738H106.2V40.357h4.948V32.048Z" transform="translate(-71.94 -25.108)" fill="#fff"/>
        <path id="패스_374" data-name="패스 374" d="M116.693,11.046l4.828-4.828.7-.7L116.693,0l-5.524,5.522.7.7Z" transform="translate(-87.094 0.001)" fill="#fff"/>
        <path id="패스_375" data-name="패스 375" d="M463.551,50.158l2.608-18.284a3.644,3.644,0,0,1,.731-1.863,1.818,1.818,0,0,1,1.447-.63,1.884,1.884,0,0,1,1.333.523,3.366,3.366,0,0,1,.86,1.526l4.585,14.616,4.543-14.616a3.469,3.469,0,0,1,.874-1.526,1.884,1.884,0,0,1,1.333-.523,1.819,1.819,0,0,1,1.448.63,3.647,3.647,0,0,1,.731,1.863l2.608,18.284h-2.608l-2.35-16.909-4.7,15.06a4.371,4.371,0,0,1-.788,1.584,1.408,1.408,0,0,1-1.089.494,1.445,1.445,0,0,1-1.11-.473,4.344,4.344,0,0,1-.8-1.6l-4.7-15.06-2.322,16.909Z" transform="translate(-363.165 -23.018)" fill="#fff"/>
        <path id="패스_376" data-name="패스 376" d="M591.416,67.213a8.147,8.147,0,0,1-2.436,4.758,6.619,6.619,0,0,1-4.643,1.748,6.9,6.9,0,0,1-1.841-.251,6.72,6.72,0,0,1-1.712-.738,7.449,7.449,0,0,1-3.016-9.128,7.51,7.51,0,0,1,1.554-2.379,6.947,6.947,0,0,1,5.044-2.135,6.72,6.72,0,0,1,3.819,1.125,8.056,8.056,0,0,1,2.73,3.275l-9.214,5.1-1.06-1.906,6.835-3.812a4.3,4.3,0,0,0-1.418-1.06,4.113,4.113,0,0,0-1.72-.358,4.161,4.161,0,0,0-3.188,1.412,5.321,5.321,0,0,0,.008,6.971,4.336,4.336,0,0,0,6.183.236,5.488,5.488,0,0,0,1.511-3.246Z" transform="translate(-452.226 -46.292)" fill="#fff"/>
        <path id="패스_377" data-name="패스 377" d="M665.123,30.571V42.937a16.506,16.506,0,0,1-.18,2.837,6.155,6.155,0,0,1-.594,1.734,6.678,6.678,0,0,1-2.565,2.823,7.013,7.013,0,0,1-3.711,1.017,6.739,6.739,0,0,1-5.065-2.071,7.234,7.234,0,0,1-2-5.237,7.608,7.608,0,0,1,.487-2.708,7.107,7.107,0,0,1,1.419-2.307,6.517,6.517,0,0,1,2.265-1.641,6.756,6.756,0,0,1,2.751-.58,8.274,8.274,0,0,1,2,.236,7.175,7.175,0,0,1,1.813.724v2.708A6.744,6.744,0,0,0,660,39.5a5.181,5.181,0,0,0-1.784-.316,4.359,4.359,0,0,0-3.324,1.39,5.006,5.006,0,0,0-1.3,3.568,4.9,4.9,0,0,0,1.269,3.489,4.25,4.25,0,0,0,3.246,1.354,4.178,4.178,0,0,0,3.238-1.368,5.1,5.1,0,0,0,1.247-3.575V30.571Z" transform="translate(-510.027 -23.951)" fill="#fff"/>
        <path id="패스_378" data-name="패스 378" d="M729.553,36.456A1.463,1.463,0,0,1,730,35.381a1.519,1.519,0,0,1,2.608,1.075,1.536,1.536,0,0,1-.437,1.11,1.446,1.446,0,0,1-1.082.452A1.464,1.464,0,0,1,730,37.56a1.517,1.517,0,0,1-.452-1.1m.272,4h2.522V54.511h-2.522Z" transform="translate(-571.562 -27.371)" fill="#fff"/>
        <path id="패스_379" data-name="패스 379" d="M764.015,62.82h-1.089a6.547,6.547,0,0,0-4.227,1.268,4.379,4.379,0,0,0,.007,6.735,6.557,6.557,0,0,0,4.22,1.268h1.089V74.47h-1.261a8.906,8.906,0,0,1-6.012-1.927A6.42,6.42,0,0,1,754.5,67.42a6.663,6.663,0,0,1,.8-3.21,7.125,7.125,0,0,1,4.471-3.5,12.176,12.176,0,0,1,2.981-.3h1.261Z" transform="translate(-591.107 -47.33)" fill="#fff"/>
        <path id="패스_380" data-name="패스 380" d="M818.2,73.538V66.531a5.1,5.1,0,0,0-1.247-3.575,4.178,4.178,0,0,0-3.239-1.369,4.248,4.248,0,0,0-3.245,1.354,4.9,4.9,0,0,0-1.268,3.489A5,5,0,0,0,810.51,70a4.357,4.357,0,0,0,3.324,1.39,5.187,5.187,0,0,0,1.784-.315,6.723,6.723,0,0,0,1.741-.974v2.708a7.163,7.163,0,0,1-1.812.724,8.3,8.3,0,0,1-2,.236,6.663,6.663,0,0,1-1.992-.308,6.488,6.488,0,0,1-1.791-.867,7.032,7.032,0,0,1-2.321-2.615,7.55,7.55,0,0,1-.8-3.489,7.18,7.18,0,0,1,1.992-5.209,6.739,6.739,0,0,1,5.058-2.056,6.991,6.991,0,0,1,3.7,1.017,6.81,6.81,0,0,1,2.58,2.794,6.348,6.348,0,0,1,.594,1.755,16.7,16.7,0,0,1,.179,2.844v5.9Z" transform="translate(-631.956 -46.398)" fill="#fff"/>
        <path id="패스_381" data-name="패스 381" d="M886.509,73.538V59.481h2.321v2.078a3.941,3.941,0,0,1,1.777-1.784,7.048,7.048,0,0,1,3.052-.552h.659v2.436h-.387a4.935,4.935,0,0,0-3.747,1.232,5.762,5.762,0,0,0-1.154,4.012v6.634Z" transform="translate(-694.528 -46.398)" fill="#fff"/>
        <path id="패스_382" data-name="패스 382" d="M940.794,67.213a8.149,8.149,0,0,1-2.436,4.758,6.618,6.618,0,0,1-4.643,1.748,6.9,6.9,0,0,1-1.841-.251,6.718,6.718,0,0,1-1.713-.738,7.449,7.449,0,0,1-3.016-9.128,7.5,7.5,0,0,1,1.555-2.379,6.947,6.947,0,0,1,5.044-2.135,6.72,6.72,0,0,1,3.819,1.125,8.063,8.063,0,0,1,2.73,3.275l-9.214,5.1-1.061-1.906,6.835-3.812a4.293,4.293,0,0,0-1.419-1.06,4.109,4.109,0,0,0-1.72-.358,4.162,4.162,0,0,0-3.188,1.412,5.322,5.322,0,0,0,.007,6.971,4.335,4.335,0,0,0,6.183.236,5.493,5.493,0,0,0,1.512-3.246Z" transform="translate(-725.943 -46.292)" fill="#fff"/>
        <path id="패스_383" data-name="패스 383" d="M731.15,35.831a2.082,2.082,0,1,1-2.082-2.082,2.081,2.081,0,0,1,2.082,2.082" transform="translate(-569.551 -26.44)" fill="#fff"/>
        <path id="패스_384" data-name="패스 384" d="M467.055,146.051h-.8v-5.532a1.138,1.138,0,0,1,.181-.692.606.606,0,0,1,.516-.241.654.654,0,0,1,.426.157,1.443,1.443,0,0,1,.35.482l2.3,4.786v-5.353h.813v5.554a1.145,1.145,0,0,1-.179.683.579.579,0,0,1-.5.246.7.7,0,0,1-.449-.158,1.326,1.326,0,0,1-.35-.48l-2.313-4.818Z" transform="translate(-365.281 -109.357)" fill="#fff"/>
        <path id="패스_385" data-name="패스 385" d="M491.4,151.107a2.241,2.241,0,0,1,.17-.866,2.333,2.333,0,0,1,.491-.741,2.209,2.209,0,0,1,.712-.489,2.139,2.139,0,0,1,.842-.167,2.19,2.19,0,0,1,.848.167,2.143,2.143,0,0,1,.714.489,2.217,2.217,0,0,1,.484.737,2.3,2.3,0,0,1,.168.87,2.342,2.342,0,0,1-.168.882,2.211,2.211,0,0,1-.484.739,2.13,2.13,0,0,1-.714.489,2.182,2.182,0,0,1-.848.168,2.131,2.131,0,0,1-.842-.168,2.2,2.2,0,0,1-.712-.489,2.269,2.269,0,0,1-.491-.741,2.3,2.3,0,0,1-.17-.88m.817-.009a1.541,1.541,0,0,0,.409,1.083,1.323,1.323,0,0,0,1.978,0,1.633,1.633,0,0,0,0-2.159,1.33,1.33,0,0,0-1.98,0,1.528,1.528,0,0,0-.409,1.076" transform="translate(-384.987 -116.611)" fill="#fff"/>
        <path id="패스_386" data-name="패스 386" d="M515.257,139.917h.79v4.2a1.591,1.591,0,0,0,.388,1.114,1.3,1.3,0,0,0,1.009.426,1.326,1.326,0,0,0,1.022-.426,1.592,1.592,0,0,0,.393-1.123,1.5,1.5,0,0,0-.4-1.085,1.377,1.377,0,0,0-1.038-.419,1.675,1.675,0,0,0-.562.1,1.984,1.984,0,0,0-.545.3v-.844a2.218,2.218,0,0,1,.565-.225,2.57,2.57,0,0,1,.623-.074,2.07,2.07,0,0,1,.62.1,2.026,2.026,0,0,1,.558.27,2.242,2.242,0,0,1,.73.817,2.3,2.3,0,0,1,.252,1.071,2.252,2.252,0,0,1-.623,1.634,2.1,2.1,0,0,1-1.574.643,2.2,2.2,0,0,1-1.161-.319,2.088,2.088,0,0,1-.8-.877,1.918,1.918,0,0,1-.186-.54,5.157,5.157,0,0,1-.056-.884Z" transform="translate(-403.674 -109.617)" fill="#fff"/>
        <rect id="사각형_370" data-name="사각형 370" width="0.786" height="6.393" transform="translate(116.798 30.3)" fill="#fff"/>
        <path id="패스_387" data-name="패스 387" d="M551.138,151.334a2.538,2.538,0,0,1-.759,1.482,2.062,2.062,0,0,1-1.447.545,2.144,2.144,0,0,1-.574-.078,2.082,2.082,0,0,1-.533-.23,2.321,2.321,0,0,1-.94-2.844,2.333,2.333,0,0,1,.485-.741,2.166,2.166,0,0,1,1.571-.666,2.1,2.1,0,0,1,1.19.351,2.512,2.512,0,0,1,.85,1.02l-2.871,1.589-.331-.594,2.13-1.188a1.334,1.334,0,0,0-.442-.33,1.282,1.282,0,0,0-.536-.112,1.3,1.3,0,0,0-.993.44,1.658,1.658,0,0,0,0,2.172,1.351,1.351,0,0,0,1.927.074,1.71,1.71,0,0,0,.471-1.012Z" transform="translate(-428.322 -116.578)" fill="#fff"/>
        <path id="패스_388" data-name="패스 388" d="M585.2,140.675c-.039,0-.079-.005-.121-.007s-.1,0-.187,0a3,3,0,0,0-2.049.659,2.5,2.5,0,0,0,0,3.567,3,3,0,0,0,2.049.659c.083,0,.146,0,.189,0l.119-.007v.768h-.246a6.22,6.22,0,0,1-1.25-.112,2.836,2.836,0,0,1-.906-.335,3.274,3.274,0,0,1-1.169-1.172,3.3,3.3,0,0,1,0-3.159,3.249,3.249,0,0,1,1.169-1.165,2.878,2.878,0,0,1,.906-.337,6.123,6.123,0,0,1,1.25-.114h.246Z" transform="translate(-455.36 -109.616)" fill="#fff"/>
        <path id="패스_389" data-name="패스 389" d="M605.759,153.3v-2.183a1.592,1.592,0,0,0-.388-1.114,1.3,1.3,0,0,0-1.009-.426,1.323,1.323,0,0,0-1.011.422,1.525,1.525,0,0,0-.4,1.087,1.559,1.559,0,0,0,.406,1.112,1.357,1.357,0,0,0,1.036.434,1.62,1.62,0,0,0,.556-.1,2.109,2.109,0,0,0,.542-.3v.843a2.21,2.21,0,0,1-.565.226,2.565,2.565,0,0,1-.623.074,2.07,2.07,0,0,1-.62-.1,2.013,2.013,0,0,1-.558-.27,2.191,2.191,0,0,1-.723-.815,2.351,2.351,0,0,1-.25-1.088,2.236,2.236,0,0,1,.621-1.623,2.1,2.1,0,0,1,1.576-.641,2.179,2.179,0,0,1,1.152.317,2.124,2.124,0,0,1,.8.871,1.982,1.982,0,0,1,.185.547,5.212,5.212,0,0,1,.056.886V153.3Z" transform="translate(-471.754 -116.611)" fill="#fff"/>
        <path id="패스_390" data-name="패스 390" d="M627.041,153.3v-4.38h.723v.647a1.227,1.227,0,0,1,.554-.556,2.2,2.2,0,0,1,.951-.172h.205v.759h-.12a1.537,1.537,0,0,0-1.168.384,1.8,1.8,0,0,0-.36,1.25V153.3Z" transform="translate(-491.25 -116.611)" fill="#fff"/>
        <path id="패스_391" data-name="패스 391" d="M643.954,151.334a2.539,2.539,0,0,1-.759,1.482,2.063,2.063,0,0,1-1.447.545,2.148,2.148,0,0,1-.574-.078,2.091,2.091,0,0,1-.533-.23,2.321,2.321,0,0,1-.94-2.844,2.328,2.328,0,0,1,.485-.741,2.165,2.165,0,0,1,1.571-.666,2.1,2.1,0,0,1,1.19.351,2.511,2.511,0,0,1,.85,1.02l-2.871,1.589-.33-.594,2.13-1.188a1.336,1.336,0,0,0-.442-.33,1.282,1.282,0,0,0-.536-.112,1.3,1.3,0,0,0-.993.44,1.656,1.656,0,0,0,0,2.172,1.351,1.351,0,0,0,1.926.074,1.71,1.71,0,0,0,.471-1.012Z" transform="translate(-501.038 -116.578)" fill="#fff"/>
        <path id="패스_392" data-name="패스 392" d="M675.138,146.31v-4.764a1.546,1.546,0,0,1,.46-1.224,2.045,2.045,0,0,1,1.388-.406h.473v.75H677a1.178,1.178,0,0,0-.828.246,1.014,1.014,0,0,0-.261.772v.246h1.545v.741h-1.545v3.639Z" transform="translate(-528.931 -109.617)" fill="#fff"/>
        <path id="패스_393" data-name="패스 393" d="M687.075,151.107a2.241,2.241,0,0,1,.17-.866,2.324,2.324,0,0,1,.491-.741,2.205,2.205,0,0,1,.712-.489,2.141,2.141,0,0,1,.842-.167,2.191,2.191,0,0,1,.848.167,2.144,2.144,0,0,1,.714.489,2.227,2.227,0,0,1,.484.737,2.308,2.308,0,0,1,.167.87,2.349,2.349,0,0,1-.167.882,2.221,2.221,0,0,1-.484.739,2.131,2.131,0,0,1-.714.489,2.183,2.183,0,0,1-.848.168,2.133,2.133,0,0,1-.842-.168,2.191,2.191,0,0,1-.712-.489,2.261,2.261,0,0,1-.491-.741,2.3,2.3,0,0,1-.17-.88m.817-.009a1.541,1.541,0,0,0,.408,1.083,1.323,1.323,0,0,0,1.978,0,1.633,1.633,0,0,0,0-2.159,1.33,1.33,0,0,0-1.98,0,1.528,1.528,0,0,0-.408,1.076" transform="translate(-538.283 -116.611)" fill="#fff"/>
        <path id="패스_394" data-name="패스 394" d="M711.237,153.3v-4.38h.724v.647a1.229,1.229,0,0,1,.553-.556,2.2,2.2,0,0,1,.952-.172h.2v.759h-.12a1.537,1.537,0,0,0-1.168.384,1.8,1.8,0,0,0-.359,1.25V153.3Z" transform="translate(-557.213 -116.611)" fill="#fff"/>
        <path id="패스_395" data-name="패스 395" d="M736.658,146.31v-6.393h.839v2.652h2.755v-2.652h.849v6.393h-.849v-2.934H737.5v2.934Z" transform="translate(-577.129 -109.617)" fill="#fff"/>
        <path id="패스_396" data-name="패스 396" d="M765.74,149.215V151.6a2.165,2.165,0,0,1-.507,1.514,1.926,1.926,0,0,1-2.712,0,2.171,2.171,0,0,1-.5-1.514v-2.388h.781v2.531a1.182,1.182,0,0,0,.306.844,1.094,1.094,0,0,0,1.558,0,1.193,1.193,0,0,0,.3-.844v-2.531Z" transform="translate(-596.995 -116.901)" fill="#fff"/>
        <path id="패스_397" data-name="패스 397" d="M783.643,153.3v-2.531a2.026,2.026,0,0,1,.469-1.411,1.62,1.62,0,0,1,1.263-.518,1.656,1.656,0,0,1,.751.172,1.7,1.7,0,0,1,.594.5,1.736,1.736,0,0,1,.6-.5,1.642,1.642,0,0,1,.745-.169,1.612,1.612,0,0,1,1.257.52,2.02,2.02,0,0,1,.471,1.409V153.3h-.777v-2.679a1.042,1.042,0,0,0-.263-.741.981.981,0,0,0-1.375,0,1.042,1.042,0,0,0-.263.741V153.3h-.777v-2.679a1.028,1.028,0,0,0-.268-.741.913.913,0,0,0-.692-.281.9.9,0,0,0-.69.281,1.047,1.047,0,0,0-.261.741V153.3Z" transform="translate(-613.939 -116.611)" fill="#fff"/>
        <path id="패스_398" data-name="패스 398" d="M819.159,153.3v-2.183a1.593,1.593,0,0,0-.388-1.114,1.3,1.3,0,0,0-1.009-.426,1.323,1.323,0,0,0-1.011.422,1.526,1.526,0,0,0-.4,1.087,1.559,1.559,0,0,0,.406,1.112,1.357,1.357,0,0,0,1.036.434,1.617,1.617,0,0,0,.556-.1,2.1,2.1,0,0,0,.542-.3v.843a2.205,2.205,0,0,1-.565.226,2.563,2.563,0,0,1-.623.074,2.068,2.068,0,0,1-.62-.1,2.009,2.009,0,0,1-.558-.27,2.194,2.194,0,0,1-.724-.815,2.355,2.355,0,0,1-.25-1.088,2.236,2.236,0,0,1,.621-1.623,2.1,2.1,0,0,1,1.576-.641,2.18,2.18,0,0,1,1.152.317,2.124,2.124,0,0,1,.8.871,1.963,1.963,0,0,1,.186.547,5.168,5.168,0,0,1,.056.886V153.3Z" transform="translate(-638.941 -116.611)" fill="#fff"/>
        <path id="패스_399" data-name="패스 399" d="M840.173,153.3v-2.389a2.16,2.16,0,0,1,.509-1.514,1.925,1.925,0,0,1,2.71,0,2.175,2.175,0,0,1,.5,1.514V153.3h-.777v-2.531a1.194,1.194,0,0,0-.3-.844,1.094,1.094,0,0,0-1.558,0,1.184,1.184,0,0,0-.306.844V153.3Z" transform="translate(-658.227 -116.611)" fill="#fff"/>
        <path id="패스_400" data-name="패스 400" d="M874.6,146.051h-.8v-5.532a1.136,1.136,0,0,1,.181-.692.606.606,0,0,1,.515-.241.654.654,0,0,1,.426.157,1.446,1.446,0,0,1,.351.482l2.3,4.786v-5.353h.812v5.554a1.143,1.143,0,0,1-.179.683.579.579,0,0,1-.5.246.7.7,0,0,1-.449-.158,1.326,1.326,0,0,1-.35-.48l-2.313-4.818Z" transform="translate(-684.571 -109.357)" fill="#fff"/>
        <path id="패스_401" data-name="패스 401" d="M902.6,153.3v-2.183a1.589,1.589,0,0,0-.388-1.114,1.3,1.3,0,0,0-1.009-.426,1.325,1.325,0,0,0-1.011.422,1.527,1.527,0,0,0-.395,1.087,1.559,1.559,0,0,0,.406,1.112,1.359,1.359,0,0,0,1.036.434,1.614,1.614,0,0,0,.556-.1,2.113,2.113,0,0,0,.543-.3v.843a2.213,2.213,0,0,1-.565.226,2.569,2.569,0,0,1-.623.074,2.076,2.076,0,0,1-.621-.1,2.014,2.014,0,0,1-.558-.27,2.194,2.194,0,0,1-.723-.815,2.36,2.36,0,0,1-.25-1.088,2.236,2.236,0,0,1,.62-1.623,2.1,2.1,0,0,1,1.577-.641,2.184,2.184,0,0,1,1.152.317,2.125,2.125,0,0,1,.8.871,1.984,1.984,0,0,1,.185.547,5.2,5.2,0,0,1,.056.886V153.3Z" transform="translate(-704.309 -116.611)" fill="#fff"/>
        <path id="패스_402" data-name="패스 402" d="M923.671,143.854h.786v1.161h1.326v.741h-1.326v1.875a1.019,1.019,0,0,0,.257.77,1.162,1.162,0,0,0,.82.244h.25v.75h-.258a2.054,2.054,0,0,1-1.391-.406,1.543,1.543,0,0,1-.462-1.223Z" transform="translate(-723.642 -112.701)" fill="#fff"/>
        <path id="패스_403" data-name="패스 403" d="M940.63,149.215V151.6a2.167,2.167,0,0,1-.506,1.514,1.926,1.926,0,0,1-2.713,0,2.173,2.173,0,0,1-.5-1.514v-2.388h.781v2.531a1.183,1.183,0,0,0,.306.844,1.094,1.094,0,0,0,1.558,0,1.192,1.192,0,0,0,.3-.844v-2.531Z" transform="translate(-734.012 -116.901)" fill="#fff"/>
        <path id="패스_404" data-name="패스 404" d="M958.8,153.3v-4.38h.723v.647a1.228,1.228,0,0,1,.554-.556,2.2,2.2,0,0,1,.951-.172h.206v.759h-.12a1.537,1.537,0,0,0-1.167.384,1.8,1.8,0,0,0-.36,1.25V153.3Z" transform="translate(-751.166 -116.611)" fill="#fff"/>
        <path id="패스_405" data-name="패스 405" d="M975.715,151.334a2.537,2.537,0,0,1-.759,1.482,2.062,2.062,0,0,1-1.447.545,2.146,2.146,0,0,1-.574-.078,2.093,2.093,0,0,1-.533-.23,2.321,2.321,0,0,1-.94-2.844,2.329,2.329,0,0,1,.485-.741,2.167,2.167,0,0,1,1.571-.666,2.1,2.1,0,0,1,1.19.351,2.512,2.512,0,0,1,.85,1.02l-2.871,1.589-.33-.594,2.13-1.188a1.334,1.334,0,0,0-.442-.33,1.282,1.282,0,0,0-.536-.112,1.3,1.3,0,0,0-.993.44,1.657,1.657,0,0,0,0,2.172,1.351,1.351,0,0,0,1.926.074,1.709,1.709,0,0,0,.471-1.012Z" transform="translate(-760.953 -116.578)" fill="#fff"/>
      </g>
    </g>
  </g>
</svg>
